<svg xmlns="http://www.w3.org/2000/svg" version="1.1" xmlns:xlink="http://www.w3.org/1999/xlink" xmlns:svgjs="http://svgjs.dev/svgjs" width="1000" height="1000" viewBox="0 0 1000 1000"><rect width="1000" height="1000" fill="#ffffff"></rect><g transform="matrix(0.7,0,0,0.7,149.57575757575756,457.2978533616341)"><svg viewBox="0 0 396 49" data-background-color="#ffffff" preserveAspectRatio="xMidYMid meet" height="123" width="1000" xmlns="http://www.w3.org/2000/svg" xmlns:xlink="http://www.w3.org/1999/xlink"><g id="tight-bounds" transform="matrix(1,0,0,1,0.2400000000000091,-0.19796532775924902)"><svg viewBox="0 0 395.52 49.39593065551849" height="49.39593065551849" width="395.52"><g><svg viewBox="0 0 395.95394155844156 49.450125" height="49.39593065551849" width="395.52"><g><svg viewBox="0 0 395.95394155844156 49.450125" height="49.450125" width="395.95394155844156"><g><svg viewBox="0 0 395.95394155844156 49.450125" height="49.450125" width="395.95394155844156"><g><svg viewBox="0 0 395.95394155844156 49.450125" height="49.450125" width="395.95394155844156"><g><svg><g></g><g></g></svg></g><g><svg><g><svg></svg></g><g></g></svg></g><g id="text-0"><svg viewBox="0 0 395.95394155844156 49.450125" height="49.450125" width="395.95394155844156"><g transform="matrix(1,0,0,1,0,4.3500625)"><svg width="169.05000000000004" viewBox="-0.8500000238418579 -31.25 169.02999877929688 40.75" height="40.75" data-palette-color="#48513c"><path d="M39.55-21.4L39.55-21.4Q37.7-20.65 36.38-20.65 35.05-20.65 35.05-21.2L35.05-21.2Q35.05-21.55 36.52-21.6 38-21.65 38.65-21.95L38.65-21.95Q40.55-22.95 40.55-24.9L40.55-24.9Q40.55-25.9 40-27L40-27Q38.4-29.85 32.25-29.85L32.25-29.85Q28.7-29.85 25.15-28.78 21.6-27.7 19.2-25.48 16.8-23.25 16.8-21.35L16.8-21.35Q16.8-18.45 22.55-17.1L22.55-17.1 28.45-16Q32-15.35 33.75-14.2L33.75-14.2Q36.05-12.8 36.05-10.2L36.05-10.2Q36.05-9.15 35.7-7.95L35.7-7.95Q34.1-2.55 27.45 0.3L27.45 0.3Q21.9 2.75 14.35 2.75L14.35 2.75Q12.2 2.75 10.6 2.55L10.6 2.55Q12.2 3.45 14.8 4.1L14.8 4.1Q15 4.15 15 4.3L15 4.3Q15 4.75 13.95 4.75L13.95 4.75Q11.9 4.75 8.85 2.3L8.85 2.3Q4.7 1.65 2.65 0L2.65 0Q1.35-1.05 0.25-3.1-0.85-5.15-0.85-6.8-0.85-8.45-0.2-9.55L-0.2-9.55Q1.3-12.2 3.6-12.2L3.6-12.2Q5.35-12.2 5.65-9.25L5.65-9.25Q6.35-3.55 6.6-2.75L6.6-2.75Q7.35-0.3 9.15 1.4L9.15 1.4Q11.25 1.85 13.7 1.85L13.7 1.85Q19.1 1.85 24.3-0.3 29.5-2.45 31.8-6.4L31.8-6.4Q32.75-7.95 32.75-9.15L32.75-9.15Q32.75-11.5 28.6-12.8L28.6-12.8 19.8-14.8Q17.1-15.45 15.48-16.95 13.85-18.45 13.85-20.4L13.85-20.4Q13.85-23.4 17.6-26.4L17.6-26.4Q20.45-28.7 24.58-29.98 28.7-31.25 32.68-31.25 36.65-31.25 39.25-30.1L39.25-30.1Q42.6-28.55 42.6-25.58 42.6-22.6 39.55-21.4ZM7.35 0.9L7.35 0.9Q4.45-2.3 3.65-7.85L3.65-7.85Q3.2-11 2.8-11 2.4-11 2.05-10.78 1.7-10.55 1.35-9.8 1-9.05 1-7.85L1-7.85Q1-4 3.7-1.25L3.7-1.25Q5.05 0.15 7.35 0.9ZM45.45-15.8L45.45-15.8Q46.8-15.8 46.8-14.75L46.8-14.75Q46.8-14.45 46.65-14.15L46.65-14.15Q42.15-7.9 41.25-4.7L41.25-4.7Q52.9-16.35 55.4-16.35L55.4-16.35Q55.65-16.4 55.85-16.4L55.85-16.4Q57.25-16.4 57.25-15.15L57.25-15.15Q57.25-14.9 57.15-14.65 57.05-14.4 55.15-11.95L55.15-11.95Q52.95-9.35 51.42-6.95 49.9-4.55 49.9-2.95 49.9-1.35 50.6-1.35L50.6-1.35Q52.8-1.35 58.25-7.4L58.25-7.4Q58.35-7.5 58.6-7.85L58.6-7.85Q59.35-8.75 59.5-8.75 59.65-8.75 59.65-8.25 59.65-7.75 58.95-6.95L58.95-6.95Q52.75 0.1 50.15 0.1L50.15 0.1Q47.7 0.1 47.7-2.6 47.7-5.3 49.7-8.8L49.7-8.8 52.9-14Q49.5-11.5 46.85-8.53 44.2-5.55 42.02-2.75 39.85 0.05 39.5 0.05L39.5 0.05Q38.75 0.05 38.32-0.58 37.9-1.2 37.9-2.13 37.9-3.05 38.55-4.6 39.2-6.15 40.2-8.35L40.2-8.35 37.2-5.2Q36.1-4.1 35.82-4.1 35.55-4.1 35.55-4.42 35.55-4.75 35.95-5.15L35.95-5.15Q37.8-7 39.15-8.7L39.15-8.7Q40.45-10.4 44.5-15.2L44.5-15.2Q44.95-15.8 45.45-15.8ZM74.15-14.95L74.15-14.95 74.84-15.1Q75.4-15.1 75.9-14.65 76.4-14.2 76.4-13.95 76.4-13.7 73.3-9.13 70.2-4.55 70.2-2.75L70.2-2.75Q70.2-2.6 70.25-2.45L70.25-2.45Q70.5-1.3 71.34-1.3L71.34-1.3Q73.95-1.3 80.84-9.9L80.84-9.9Q81-10.1 81.2-10.1 81.4-10.1 81.4-9.73 81.4-9.35 80.95-8.75L80.95-8.75Q74.55-0.2 71.2-0.2L71.2-0.2Q70.75-0.2 70.34-0.35L70.34-0.35Q68.15-1.2 68.15-3.65L68.15-3.65Q68.15-4.5 68.34-5.35L68.34-5.35 65.25-2.35Q62.3 0.25 60.97 0.25 59.65 0.25 58.45-0.6L58.45-0.6Q57.09-1.6 57.09-3.25L57.09-3.25Q57.09-6.9 62.2-11.98 67.3-17.05 71.55-17.05L71.55-17.05Q73.2-17.05 73.75-15.9L73.75-15.9Q73.9-15.5 74-15.23 74.09-14.95 74.15-14.95ZM59.2-2.65L59.2-2.65Q59.2-0.85 60.45-0.85L60.45-0.85Q63.34-0.85 68.34-7.2L68.34-7.2 73.65-14.5Q73.25-15.2 72.34-15.2L72.34-15.2Q69.3-15.2 64.25-10.48 59.2-5.75 59.2-2.65ZM96.99-11.3L96.99-11.3Q96.99-7.25 92.37-3.63 87.74 0 84.34 0L84.34 0Q82.09 0 81.07-0.3 80.04-0.6 78.79-2.1L78.79-2.1Q77.94-1.4 76.49 1.48 75.04 4.35 75.04 6.4L75.04 6.4Q75.04 7.35 75.99 8.9L75.99 8.9Q76.09 9.15 75.84 9.33 75.59 9.5 75.47 9.5 75.34 9.5 75.24 9.45L75.24 9.45Q73.14 8.3 73.14 4.98 73.14 1.65 78.67-6.53 84.19-14.7 86.29-15.4L86.29-15.4Q86.79-15.5 86.94-15.5L86.94-15.5Q87.79-15.5 87.79-13.65L87.79-13.65Q88.29-14.15 89.84-14.6L89.84-14.6Q91.74-15.1 92.54-15.1L92.54-15.1Q94.34-15.1 95.67-14.08 96.99-13.05 96.99-11.3ZM94.44-11.8L94.44-11.8Q94.44-13.7 92.19-13.7 89.94-13.7 88.09-12.75L88.09-12.75Q87.24-12.35 83.39-8.35 79.54-4.35 79.54-3.2L79.54-3.2Q79.54-2.3 80.92-1.85 82.29-1.4 83.69-1.4L83.69-1.4Q86.44-1.4 90.44-4.53 94.44-7.65 94.44-11.8ZM107.79-1.8L106.19-0.75Q104.74 0.1 102.62 0.1 100.49 0.1 99.37-1.3 98.24-2.7 97.44-5.75L97.44-5.75Q96.54-4.85 96.19-4.85L96.19-4.85Q95.94-4.85 95.94-5.2 95.94-5.55 96.19-5.8L96.19-5.8Q97.84-7.85 101.79-11.7L101.79-11.7 108.09-17.6Q110.79-20.15 111.29-20.15L111.29-20.15Q112.89-20.15 112.89-18.95L112.89-18.95Q112.89-18.35 112.42-17.78 111.94-17.2 111.72-16.88 111.49-16.55 111.24-16.25L111.24-16.25Q110.34-14.7 109.42-9.85 108.49-5 107.99-3.1L107.99-3.1Q112.14-3.15 116.54-8.5L116.54-8.5Q117.04-9 117.29-9 117.54-9 117.54-8.68 117.54-8.35 117.09-7.8L117.09-7.8Q114.19-4.4 111.69-3.05L111.69-3.05Q110.19-2.3 107.79-1.8L107.79-1.8ZM99.44-6.3L99.44-6.3Q99.44-4.6 100.57-3.53 101.69-2.45 103.09-2.45 104.49-2.45 105.24-3L105.24-3Q106.24-3.55 107.22-7.6 108.19-11.65 108.39-14.75L108.39-14.75 108.59-16.45Q105.84-14.4 102.72-11.15 99.59-7.9 99.49-6.85L99.49-6.85Q99.44-6.55 99.44-6.3ZM126.79-0.2L126.79-0.2Q123.84-0.2 123.84-3.65L123.84-3.65Q123.84-5.6 125.21-7.98 126.59-10.35 128.59-13.55L128.59-13.55Q122.19-10.35 116.99-4.1L116.99-4.1Q114.09 0.25 113.59 0.25L113.59 0.25Q112.14 0.25 112.14-0.6L112.14-0.6Q112.14-1.05 112.74-2.2L112.74-2.2Q117.59-10.85 120.09-14.85L120.09-14.85Q126.04-24.4 128.49-25.2L128.49-25.2Q128.59-25.25 128.69-25.25L128.69-25.25Q129.34-25.25 129.59-24.2L129.59-24.2Q129.44-23.15 124.39-16.6L124.39-16.6Q119.14-9.95 118.44-7.9L118.44-7.9Q120.29-9.25 124.89-12.45L124.89-12.45Q129.84-15.9 131.44-15.9 133.04-15.9 133.04-14.65L133.04-14.65Q133.04-14.45 133.01-14.38 132.99-14.3 129.54-9.65 126.09-5 126.09-2.8L126.09-2.8Q126.09-1.65 126.94-1.65L126.94-1.65Q129.64-1.75 135.04-8.15L135.04-8.15Q135.49-8.6 135.71-8.6 135.94-8.6 135.94-8.3L135.94-8.3Q135.94-7.3 130.99-2.9L130.99-2.9Q127.89-0.2 126.79-0.2ZM146.79-10.6L146.79-10.6Q146.79-8.85 143.44-4.75L143.44-4.75Q139.49 0.1 136.69 0.1L136.69 0.1 135.89 0.1Q134.59 0.1 133.84-1.25L133.84-1.25Q133.24-2.2 133.24-3.35L133.24-3.35Q133.24-6.35 137.61-11.78 141.99-17.2 144.69-17.2L144.69-17.2Q147.24-17.2 147.24-14.5L147.24-14.5Q147.24-13.8 146.99-12.7L146.99-12.7Q147.04-12.55 147.94-12.55 148.84-12.55 150.69-13.5L150.69-13.5Q150.64-12.65 146.74-11.05L146.74-11.05Q146.79-10.85 146.79-10.6ZM143.54-13.2L143.54-13.2Q141.84-13.2 138.71-9.2 135.59-5.2 135.59-3.3 135.59-1.4 136.79-1.4L136.79-1.4Q138.94-1.4 142.24-5.3 145.54-9.2 145.54-10.9L145.54-10.9Q144.74-11.35 143.54-13.2ZM160.83-16.1L160.83-16.1 168.03-16.2Q168.18-16.1 168.18-16.05L168.18-16.05Q168.18-15.6 161.96-14.8 155.73-14 155.23-13.85L155.23-13.85Q154.28-13 151.73-8.78 149.18-4.55 149.18-2.6L149.18-2.6Q149.18-0.75 151.73-0.75L151.73-0.75Q152.93-0.75 154.88-1.5 156.83-2.25 157.88-2.9L157.88-2.9Q160.68-4.65 163.88-8.05L163.88-8.05Q164.58-8.75 164.83-8.75L164.83-8.75Q164.98-8.75 164.98-8.45 164.98-8.15 164.23-7.25L164.23-7.25Q161.63-4.05 158.38-2.1L158.38-2.1Q154.48 0.3 150.93 0.3L150.93 0.3Q149.38 0.3 148.41-0.38 147.43-1.05 147.43-3.1 147.43-5.15 149.23-8.72 151.03-12.3 151.98-14.05L151.98-14.05Q151.28-13.9 150.78-13.9L150.78-13.9Q149.33-13.9 149.33-15.05L149.33-15.05Q149.33-15.9 150.53-16.25L150.53-16.25Q150.68-16.25 150.98-16.3L150.98-16.3 153.88-16.3Q154.78-17.45 155.93-18.95L155.93-18.95Q157.33-20.75 157.83-20.75 158.33-20.75 159.08-20.35 159.83-19.95 159.83-19.4 159.83-18.85 157.43-16.15L157.43-16.15Q158.73-16.1 160.83-16.1Z" opacity="1" transform="matrix(1,0,0,1,0,0)" fill="#48513c" class="undefined-o-0"></path></svg></g><g><svg version="1.1" xmlns="http://www.w3.org/2000/svg" xmlns:xlink="http://www.w3.org/1999/xlink" x="184.61650000000003" y="0" viewBox="0 0 100 77" enable-background="new 0 0 100 77" xml:space="preserve" height="49.450125" width="64.22094155844157" class="icon-a-0" data-fill-palette-color="accent" id="a-0"><path d="M50 32c-7.168 0-13 5.832-13 13 0 7.168 5.832 13 13 13s13-5.832 13-13C63 37.832 57.168 32 50 32z" fill="#000000" data-fill-palette-color="accent"></path><path d="M87 13H72c0-7.18-5.82-13-13-13H41c-7.18 0-13 5.82-13 13H13C5.82 13 0 18.82 0 26v38c0 7.18 5.82 13 13 13h74c7.18 0 13-5.82 13-13V26C100 18.82 94.18 13 87 13zM50 68c-12.683 0-23-10.318-23-23 0-12.682 10.317-23 23-23s23 10.318 23 23C73 57.682 62.683 68 50 68z" fill="#000000" data-fill-palette-color="accent"></path></svg></g><g transform="matrix(1,0,0,1,264.4039415584416,4.3500625)"><svg width="131.55" viewBox="-0.8500000238418579 -31.25 131.54000854492188 36" height="36" data-palette-color="#48513c"><path d="M39.55-21.4L39.55-21.4Q37.7-20.65 36.38-20.65 35.05-20.65 35.05-21.2L35.05-21.2Q35.05-21.55 36.52-21.6 38-21.65 38.65-21.95L38.65-21.95Q40.55-22.95 40.55-24.9L40.55-24.9Q40.55-25.9 40-27L40-27Q38.4-29.85 32.25-29.85L32.25-29.85Q28.7-29.85 25.15-28.78 21.6-27.7 19.2-25.48 16.8-23.25 16.8-21.35L16.8-21.35Q16.8-18.45 22.55-17.1L22.55-17.1 28.45-16Q32-15.35 33.75-14.2L33.75-14.2Q36.05-12.8 36.05-10.2L36.05-10.2Q36.05-9.15 35.7-7.95L35.7-7.95Q34.1-2.55 27.45 0.3L27.45 0.3Q21.9 2.75 14.35 2.75L14.35 2.75Q12.2 2.75 10.6 2.55L10.6 2.55Q12.2 3.45 14.8 4.1L14.8 4.1Q15 4.15 15 4.3L15 4.3Q15 4.75 13.95 4.75L13.95 4.75Q11.9 4.75 8.85 2.3L8.85 2.3Q4.7 1.65 2.65 0L2.65 0Q1.35-1.05 0.25-3.1-0.85-5.15-0.85-6.8-0.85-8.45-0.2-9.55L-0.2-9.55Q1.3-12.2 3.6-12.2L3.6-12.2Q5.35-12.2 5.65-9.25L5.65-9.25Q6.35-3.55 6.6-2.75L6.6-2.75Q7.35-0.3 9.15 1.4L9.15 1.4Q11.25 1.85 13.7 1.85L13.7 1.85Q19.1 1.85 24.3-0.3 29.5-2.45 31.8-6.4L31.8-6.4Q32.75-7.95 32.75-9.15L32.75-9.15Q32.75-11.5 28.6-12.8L28.6-12.8 19.8-14.8Q17.1-15.45 15.48-16.95 13.85-18.45 13.85-20.4L13.85-20.4Q13.85-23.4 17.6-26.4L17.6-26.4Q20.45-28.7 24.58-29.98 28.7-31.25 32.68-31.25 36.65-31.25 39.25-30.1L39.25-30.1Q42.6-28.55 42.6-25.58 42.6-22.6 39.55-21.4ZM7.35 0.9L7.35 0.9Q4.45-2.3 3.65-7.85L3.65-7.85Q3.2-11 2.8-11 2.4-11 2.05-10.78 1.7-10.55 1.35-9.8 1-9.05 1-7.85L1-7.85Q1-4 3.7-1.25L3.7-1.25Q5.05 0.15 7.35 0.9ZM50.45-16.1L50.45-16.1 57.65-16.2Q57.8-16.1 57.8-16.05L57.8-16.05Q57.8-15.6 51.57-14.8 45.35-14 44.85-13.85L44.85-13.85Q43.9-13 41.35-8.78 38.8-4.55 38.8-2.6L38.8-2.6Q38.8-0.75 41.35-0.75L41.35-0.75Q42.55-0.75 44.5-1.5 46.45-2.25 47.5-2.9L47.5-2.9Q50.3-4.65 53.5-8.05L53.5-8.05Q54.2-8.75 54.45-8.75L54.45-8.75Q54.6-8.75 54.6-8.45 54.6-8.15 53.85-7.25L53.85-7.25Q51.25-4.05 48-2.1L48-2.1Q44.1 0.3 40.55 0.3L40.55 0.3Q39 0.3 38.02-0.38 37.05-1.05 37.05-3.1 37.05-5.15 38.85-8.72 40.65-12.3 41.6-14.05L41.6-14.05Q40.9-13.9 40.4-13.9L40.4-13.9Q38.95-13.9 38.95-15.05L38.95-15.05Q38.95-15.9 40.15-16.25L40.15-16.25Q40.3-16.25 40.6-16.3L40.6-16.3 43.5-16.3Q44.4-17.45 45.55-18.95L45.55-18.95Q46.95-20.75 47.45-20.75 47.95-20.75 48.7-20.35 49.45-19.95 49.45-19.4 49.45-18.85 47.05-16.15L47.05-16.15Q48.35-16.1 50.45-16.1ZM65.3-10.6L65.3-10.6Q65.3-8.85 61.95-4.75L61.95-4.75Q58 0.1 55.2 0.1L55.2 0.1 54.4 0.1Q53.1 0.1 52.35-1.25L52.35-1.25Q51.75-2.2 51.75-3.35L51.75-3.35Q51.75-6.35 56.12-11.78 60.5-17.2 63.2-17.2L63.2-17.2Q65.75-17.2 65.75-14.5L65.75-14.5Q65.75-13.8 65.5-12.7L65.5-12.7Q65.55-12.55 66.45-12.55 67.34-12.55 69.2-13.5L69.2-13.5Q69.15-12.65 65.25-11.05L65.25-11.05Q65.3-10.85 65.3-10.6ZM62.05-13.2L62.05-13.2Q60.35-13.2 57.22-9.2 54.1-5.2 54.1-3.3 54.1-1.4 55.3-1.4L55.3-1.4Q57.45-1.4 60.75-5.3 64.05-9.2 64.05-10.9L64.05-10.9Q63.25-11.35 62.05-13.2ZM76.49 0.25L76.49 0.25Q72.74 0.25 72.74-3.9L72.74-3.9Q72.74-6 73.84-8.5 74.94-11 76.24-12.7L76.24-12.7Q75.99-12.65 75.59-12.65L75.59-12.65Q74.39-12.65 73.59-14.35L73.59-14.35 69.89-9.55Q66.79-5.7 66.29-5.7L66.29-5.7Q66.04-5.7 66.04-5.9L66.04-5.9Q66.04-6.4 66.89-7.35L66.89-7.35Q71.24-12.4 73.04-15.9L73.04-15.9Q74.19-20.25 75.94-20.25L75.94-20.25Q77.09-20.25 77.09-19.25 77.09-18.25 75.84-16.7L75.84-16.7 74.64-15.1Q74.64-14.05 76.19-14.05L76.19-14.05Q77.09-14.05 78.19-14.7L78.19-14.7 79.49-15.5Q79.59-15.55 79.99-15.55 80.39-15.55 80.84-15.05 81.29-14.55 81.14-14.15L81.14-14.15 77.69-9.8Q74.49-5.7 74.49-3.33 74.49-0.95 76.69-0.95L76.69-0.95Q78.99-0.95 82.34-3.4L82.34-3.4Q84.34-4.85 85.99-6.65L85.99-6.65Q87.54-8.45 87.69-8.45L87.69-8.45Q88.04-8.45 88.04-8.08 88.04-7.7 87.59-7.2L87.59-7.2 85.99-5.4Q84.64-4 82.99-2.7L82.99-2.7Q79.04 0.25 76.49 0.25ZM96.84-20.4Q97.59-20.4 98.27-19.93 98.94-19.45 98.94-18.8 98.94-18.15 98.32-17.68 97.69-17.2 96.94-17.2 96.19-17.2 95.57-17.75 94.94-18.3 94.94-19L94.94-19Q94.94-20.4 96.84-20.4L96.84-20.4ZM87.79 0.55L87.79 0.55Q85.24 0.55 85.24-2.75L85.24-2.75Q85.24-5.45 88.19-10.23 91.14-15 92.94-15.05L92.94-15.05Q93.44-15.05 94.07-14.65 94.69-14.25 94.69-13.85L94.69-13.85Q94.44-13.5 94.09-13.08 93.74-12.65 93.34-12.15 92.94-11.65 92.24-10.73 91.54-9.8 90.89-8.95L90.89-8.95Q87.14-4.1 87.14-2.27 87.14-0.45 88.39-0.45L88.39-0.45Q89.44-0.45 91.24-1.6L91.24-1.6Q95.44-4.2 97.89-7.3L97.89-7.3Q98.79-8.45 99.12-8.45 99.44-8.45 99.44-8.05 99.44-7.65 98.29-6.45 97.14-5.25 96.47-4.55 95.79-3.85 95.54-3.63 95.29-3.4 94.62-2.78 93.94-2.15 93.59-1.9 93.24-1.65 92.59-1.15 91.94-0.65 91.44-0.43 90.94-0.2 90.29 0.1L90.29 0.1Q89.24 0.55 87.79 0.55ZM99.84 0.65L99.84 0.65Q99.29 0.65 98.84 0.5L98.84 0.5Q95.64-0.4 95.64-3.1L95.64-3.1Q95.64-6.6 100.04-11.2 104.44-15.8 107.94-15.8L107.94-15.8Q109.09-15.8 109.81-15.18 110.54-14.55 110.54-13.65L110.54-13.65Q110.54-10.85 106.31-8.3 102.09-5.75 99.44-5.75L99.44-5.75Q99.04-5.75 98.74-5.85L98.74-5.85Q97.99-4.5 97.99-3L97.99-3Q97.99-0.4 100.46-0.4 102.94-0.4 106.89-3.75L106.89-3.75Q109.94-6.2 112.09-8.95L112.09-8.95Q112.54-9.55 112.86-9.55 113.19-9.55 113.19-9.25 113.19-8.95 112.79-8.4L112.79-8.4Q110.09-4.85 106.29-2.1 102.49 0.65 99.84 0.65ZM109.29-13.75L109.29-13.75Q109.29-14.35 108.01-14.35 106.74-14.35 104.39-12.4L104.39-12.4Q101.24-9.8 99.49-6.95L99.49-6.95Q99.79-6.85 100.14-6.85L100.14-6.85Q102.04-6.85 105.21-8.88 108.39-10.9 109.19-13.3L109.19-13.3Q109.29-13.55 109.29-13.75ZM120.94-1.8L119.34-0.75Q117.89 0.1 115.76 0.1 113.64 0.1 112.51-1.3 111.39-2.7 110.59-5.75L110.59-5.75Q109.69-4.85 109.34-4.85L109.34-4.85Q109.09-4.85 109.09-5.2 109.09-5.55 109.34-5.8L109.34-5.8Q110.99-7.85 114.94-11.7L114.94-11.7 121.24-17.6Q123.94-20.15 124.44-20.15L124.44-20.15Q126.04-20.15 126.04-18.95L126.04-18.95Q126.04-18.35 125.56-17.78 125.09-17.2 124.86-16.88 124.64-16.55 124.39-16.25L124.39-16.25Q123.49-14.7 122.56-9.85 121.64-5 121.14-3.1L121.14-3.1Q125.29-3.15 129.69-8.5L129.69-8.5Q130.19-9 130.44-9 130.69-9 130.69-8.68 130.69-8.35 130.24-7.8L130.24-7.8Q127.34-4.4 124.84-3.05L124.84-3.05Q123.34-2.3 120.94-1.8L120.94-1.8ZM112.59-6.3L112.59-6.3Q112.59-4.6 113.71-3.53 114.84-2.45 116.24-2.45 117.64-2.45 118.39-3L118.39-3Q119.39-3.55 120.36-7.6 121.34-11.65 121.54-14.75L121.54-14.75 121.74-16.45Q118.99-14.4 115.86-11.15 112.74-7.9 112.64-6.85L112.64-6.85Q112.59-6.55 112.59-6.3Z" opacity="1" transform="matrix(1,0,0,1,0,0)" fill="#48513c" class="undefined-o-1"></path></svg></g></svg></g></svg></g></svg></g></svg></g><g></g></svg></g><defs></defs></svg><rect width="395.52" height="49.39593065551849" fill="none" stroke="none" visibility="hidden"></rect></g></svg></g></svg>